Coordinates
version=1
nRows=65
nColumns=12
inDegrees=yes

Units are S.I. units (second, meters, Newtons, ...)
Angles are in degrees

endheader
time	SC_y	SC_z	SC_x	AC_y	AC_z	AC_x	GH_y	GH_z	GH_yy	EL_x	PS_y
       0.0              -27.86          2.647          79.64          42.93          6.539          4.978          136.5         -7.058         -114.9          64.32          24.28
  0.006663              -27.86          2.652          79.64          42.93          6.537          4.978          136.5         -7.055         -114.9          64.32          24.29
   0.01333              -27.86          2.656          79.63          42.93          6.535          4.977          136.5         -7.052         -114.9          64.32          24.29
   0.01999              -27.86          2.661          79.63          42.94          6.533          4.976          136.5         -7.049         -114.9          64.32           24.3
   0.02665              -27.87          2.666          79.62          42.94           6.53          4.975          136.5         -7.046         -114.9          64.32          24.31
   0.03332              -27.87          2.672          79.62          42.94          6.528          4.974          136.5         -7.042         -114.9          64.32          24.32
   0.03998              -27.88          2.678          79.61          42.95          6.525          4.973          136.5         -7.038         -114.9          64.32          24.32
   0.04664              -27.88          2.684          79.61          42.95          6.523          4.972          136.5         -7.034         -114.8          64.32          24.33
    0.0533              -27.88          2.691           79.6          42.95           6.52          4.971          136.5          -7.03         -114.8          64.32          24.34
   0.05997              -27.89          2.698          79.59          42.96          6.517           4.97          136.5         -7.025         -114.8          64.33          24.35
   0.06663              -27.89          2.706          79.59          42.96          6.513          4.969          136.5          -7.02         -114.8          64.33          24.36
   0.07329               -27.9          2.715          79.58          42.97           6.51          4.968          136.4         -7.015         -114.8          64.33          24.38
   0.07996              -27.91          2.724          79.57          42.97          6.506          4.966          136.4         -7.009         -114.8          64.33          24.39
   0.08662              -27.91          2.733          79.56          42.98          6.502          4.965          136.4         -7.003         -114.8          64.33           24.4
   0.09328              -27.92          2.744          79.55          42.98          6.497          4.963          136.4         -6.996         -114.8          64.33          24.42
   0.09995              -27.93          2.756          79.54          42.99          6.492          4.961          136.4         -6.988         -114.8          64.33          24.43
    0.1066              -27.94          2.768          79.53           43.0          6.487          4.959          136.4          -6.98         -114.8          64.33          24.45
    0.1133              -27.95          2.782          79.52           43.0          6.481          4.957          136.3         -6.972         -114.7          64.34          24.47
    0.1199              -27.96          2.797           79.5          43.01          6.474          4.954          136.3         -6.962         -114.7          64.34          24.49
    0.1266              -27.97          2.813          79.49          43.02          6.467          4.952          136.3         -6.951         -114.7          64.34          24.51
    0.1333              -27.98          2.831          79.47          43.03           6.46          4.949          136.3          -6.94         -114.7          64.34          24.54
    0.1399              -27.99          2.851          79.45          43.04          6.451          4.946          136.2         -6.927         -114.7          64.35          24.57
    0.1466              -28.01          2.873          79.43          43.05          6.442          4.942          136.2         -6.913         -114.6          64.35           24.6
    0.1533              -28.02          2.897          79.41          43.07          6.432          4.939          136.2         -6.898         -114.6          64.35          24.63
    0.1599              -28.04          2.924          79.38          43.08           6.42          4.934          136.1          -6.88         -114.6          64.35          24.67
    0.1666              -28.06          2.954          79.36           43.1          6.407           4.93          136.1         -6.861         -114.6          64.36          24.71
    0.1732              -28.08          2.987          79.33          43.11          6.393          4.924          136.0          -6.84         -114.5          64.36          24.76
    0.1799              -28.11          3.025          79.29          43.14          6.377          4.918          136.0         -6.815         -114.5          64.37          24.81
    0.1866              -28.14          3.068          79.25          43.16          6.358          4.911          135.9         -6.788         -114.4          64.37          24.87
    0.1932              -28.17          3.116          79.21          43.19          6.338          4.904          135.8         -6.757         -114.4          64.38          24.94
    0.1999              -28.21          3.171          79.15          43.22          6.314          4.895          135.8         -6.721         -114.3          64.39          25.01
    0.2066              -28.25          3.235           79.1          43.25          6.287          4.885          135.7          -6.68         -114.3          64.39           25.1
    0.2132               -28.3          3.308          79.03          43.29          6.255          4.873          135.6         -6.633         -114.2           64.4          25.21
    0.2199              -28.36          3.393          78.95          43.34          6.219           4.86          135.4         -6.579         -114.1          64.42          25.32
    0.2265              -28.42          3.493          78.85          43.39          6.176          4.844          135.3         -6.515         -114.0          64.43          25.46
    0.2332               -28.5           3.61          78.75          43.45          6.126          4.825          135.1         -6.439         -113.9          64.44          25.63
    0.2399               -28.6           3.75          78.62          43.53          6.066          4.803          134.9         -6.349         -113.7          64.46          25.82
    0.2465              -28.71          3.917          78.46          43.62          5.995          4.776          134.7         -6.242         -113.5          64.48          26.06
    0.2532              -28.85           4.12          78.27          43.73          5.908          4.744          134.4         -6.112         -113.3          64.51          26.34
    0.2599              -29.01          4.367          78.04          43.87          5.802          4.705          134.0         -5.953         -113.0          64.54          26.69
    0.2665              -29.22          4.672          77.76          44.03          5.671          4.656          133.5         -5.757         -112.7          64.58          27.11
    0.2732              -29.47          5.052           77.4          44.24          5.508          4.596          133.0         -5.512         -112.3          64.63          27.64
    0.2798               -29.8          5.532          76.96           44.5          5.303           4.52          132.3         -5.204         -111.8          64.69          28.31
    0.2865              -30.21          6.141          76.39          44.83          5.042          4.423          131.3         -4.812         -111.2          64.77          29.17
    0.2932              -30.73          6.921          75.66          45.26          4.708          4.299          130.2         -4.311         -110.3          64.87          30.26
    0.2998               -31.4          7.922          74.73           45.8          4.279           4.14          128.7         -3.668         -109.2           65.0          31.66
    0.3065              -32.26            9.2          73.54           46.5          3.731          3.936          126.8         -2.846         -107.9          65.16          33.44
    0.3132              -33.35          10.81          72.05          47.38          3.043          3.681          124.4         -1.813         -106.2          65.37          35.69
    0.3198              -34.66          12.77          70.22          48.44          2.204          3.369          121.5        -0.5538         -104.1          65.62          38.43
    0.3265              -36.19          15.04          68.11          49.68          1.231          3.008          118.1         0.9056         -101.6          65.92          41.61
    0.3332              -37.84           17.5          65.82          51.02         0.1779          2.617          114.5          2.486         -99.01          66.23          45.04
    0.3398               -39.5          19.95          63.53          52.36        -0.8753          2.226          110.8          4.066         -96.38          66.55          48.48
    0.3465              -41.03          22.23          61.42           53.6         -1.848          1.865          107.4          5.526         -93.96          66.84          51.66
    0.3531              -42.34          24.18           59.6          54.67         -2.687          1.554          104.5          6.785         -91.86           67.1          54.39
    0.3598              -43.43          25.79           58.1          55.54         -3.376          1.298          102.1          7.818         -90.14           67.3          56.64
    0.3665              -44.29          27.07          56.91          56.24         -3.923          1.095          100.2           8.64         -88.78          67.47          58.43
    0.3731              -44.96          28.07          55.98          56.78         -4.352         0.9359          98.74          9.283         -87.71           67.6          59.83
    0.3798              -45.48          28.85          55.26          57.21         -4.686         0.8118          97.58          9.784         -86.87           67.7          60.92
    0.3865              -45.89          29.46          54.69          57.54         -4.947          0.715          96.67          10.18         -86.22          67.78          61.77
    0.3931              -46.22          29.94          54.24           57.8         -5.152         0.6387          95.96          10.48         -85.71          67.84          62.44
    0.3998              -46.47          30.32          53.89          58.01         -5.315         0.5782          95.39          10.73          -85.3          67.89          62.97
    0.4064              -46.68          30.63           53.6          58.18         -5.446         0.5297          94.94          10.92         -84.98          67.93           63.4
    0.4131              -46.84          30.87          53.37          58.31         -5.552         0.4904          94.57          11.08         -84.71          67.96          63.75
    0.4198              -46.98          31.08          53.19          58.42         -5.639         0.4582          94.27          11.21          -84.5          67.99          64.03
    0.4264              -47.09          31.24          53.03          58.51          -5.71         0.4316          94.02          11.32         -84.32          68.01          64.26
